<?xml version="1.0" encoding="UTF-8"?>
<svg id="_Слой_2" xmlns="http://www.w3.org/2000/svg" version="1.1" viewBox="0 0 167.7 173.4">
  <!-- Generator: Adobe Illustrator 29.7.1, SVG Export Plug-In . SVG Version: 2.1.1 Build 8)  -->
  <defs>
    <style>
      .st0 {
        fill: #d6c5e7;
      }
    </style>
  </defs>
  <g id="_Слой_1-2">
    <g>
      <g>
        <path class="st0" d="M9.2,40.4l21.2,9.9-1.7,3.6-18.4-8.5-.2.5,13.3,9.1-3.1,6.8-15.5-4.3-.2.5,18.4,8.5-1.7,3.6L0,60.3l3.4-7.2,15.5,4.3.2-.5-13.3-9.1s3.4-7.2,3.4-7.2Z"/>
        <path class="st0" d="M36,21l7.5,8.9c2.2,2.6,2,6.5-.7,8.7s-6.4,1.9-8.6-.8l-7.5-8.9c-2.2-2.6-2-6.6.6-8.8,2.6-2.2,6.5-1.8,8.7.9ZM32.3,22.9c-.8-.9-2.1-1-3-.3-.9.8-1,2.1-.3,3l8.7,10.4c.8.9,2.1,1,3,.3.9-.8,1-2.1.3-3,0,0-8.7-10.4-8.7-10.4Z"/>
        <path class="st0" d="M70.3,24.5l-3.8,1.3-9.7-18.1-.5.2,3.2,20.3-3.8,1.3-3.7-23.5,7.1-2.4,11.2,21h0Z"/>
        <path class="st0" d="M93.2,6.5l-.6,11.6c-.2,3.4-3,6.1-6.4,5.9s-6-3-5.8-6.4l.6-11.6C81.2,2.6,84-.2,87.4,0c3.4.2,6,3.1,5.8,6.5h0ZM89.3,5.4c0-1.2-.8-2.2-2-2.2-1.2,0-2.2.9-2.2,2l-.7,13.5c0,1.2.8,2.2,2,2.2,1.2,0,2.2-.9,2.2-2l.7-13.5h0Z"/>
        <path class="st0" d="M116.5,33.4l-3.6-1.6.2-.6-7.8-3.5-.3.5-3.6-1.6,2.1-3.1.5.2,11.5-17,6.8,3.1-5.3,19.8.5.2-1,3.7h0ZM113.4,27.8l4.5-16.7-.5-.2-9.7,14.4,5.8,2.6Z"/>
        <path class="st0" d="M145.5,35.5l-8.4,8c-2.5,2.4-6.4,2.4-8.7-.1s-2.3-6.3.2-8.6l8.4-8c2.5-2.4,6.4-2.5,8.8,0s2.2,6.3-.3,8.7h0ZM143.5,32c.9-.8.9-2.2,0-3-.8-.9-2.2-.9-3,0l-9.8,9.4c-.9.8-.9,2.2,0,3,.8.8,2.2.9,3,0l9.8-9.4Z"/>
        <path class="st0" d="M166.6,63.2l-21.9,8.4-1.4-3.7,18.9-7.2-.2-.5-20.1,4.1-2.9-7.5,21.9-8.4,1.4,3.7-18.9,7.2.2.5,20.1-4.1s2.9,7.5,2.9,7.5ZM163,50.5l2.2-.8,2.5,6.6-2.2.8-2.5-6.6Z"/>
      </g>
      <g>
        <path class="st0" d="M14.8,125.7l-2,.9c-1.5.7-3.2.8-4.8.2-1.6-.6-2.8-1.7-3.6-3.2l-.4-.8c-1.1-2.4-.3-5.3,1.9-6.7l2.4,3.4c-1.1.5-1.5,1.8-1,2.8.6,1.2,2.2,1.5,3.8.7l2-1c1.6-.7,2.4-2.3,1.8-3.4l-.9-1.9,2.8-1.4.9,1.9c.5,1.2,2.2,1.5,3.8.7,1.5-.7,2.4-2.3,1.8-3.4-.5-1.1-1.8-1.5-2.9-1l-1.1-4c2.5-.8,5.3.4,6.4,2.8l.4.8c.7,1.5.8,3.2.2,4.8-.6,1.6-1.7,2.8-3.2,3.6-1.6.8-3.5.8-5.2,0-.5,1.7-1.7,3.2-3.3,3.9h0Z"/>
        <path class="st0" d="M32.9,146l-2.7,2.7c-2.1,2.1-5.4,2.1-7.5,0l-4.9-4.8,16.5-16.6,4.4,4.4c2.1,2.1,2.1,5.4,0,7.5l-1.1,1.1c-.9.9-2.1,1.4-3.3,1.5.1,1.5-.4,3.1-1.5,4.1h0ZM30.1,143.2c.8-.8.8-2.2,0-3l-1.5-1.5-5.7,5.7,1.5,1.5c.8.8,2.2.8,3,0l2.7-2.7h0ZM30.8,136.5l1,1.1c.8.8,2.2.8,3,0l1.1-1.1c.8-.8.8-2.2,0-3l-1-1.1-4.1,4.1h0Z"/>
        <path class="st0" d="M59.5,151.8l-4.9,10.6c-1.5,3.1-5,4.5-8.2,3.1s-4.4-5-3-8.1l4.9-10.6c1.5-3.1,5.1-4.6,8.2-3.2,3.1,1.4,4.4,5.1,2.9,8.2h0ZM56.3,149.3c.5-1.1,0-2.4-1-2.9s-2.3,0-2.8,1l-5.7,12.3c-.5,1.1,0,2.4,1,2.9s2.3,0,2.8-1l5.7-12.3Z"/>
        <path class="st0" d="M83.9,150.1l-1.9,23.3-4-.3.9-11.2-4.3-.3-.9,11.2-3.9-.3,1.9-23.3,3.9.3-.7,9,4.3.3.7-9,4,.3Z"/>
        <path class="st0" d="M113.1,168.1l-3.8,1.1-5.1-10.8-2.9.8,3.2,11.3-3.8,1.1-6.3-22.6,3.8-1.1,2.3,8.2,2.9-.8-.9-8.6,3.8-1.1,1.1,9.9.2.6,5.6,11.9h0Z"/>
        <path class="st0" d="M127.8,131.9l14.3,18.5-3.1,2.4-12.4-16-.5.4,9.7,18.1-6.3,4.9-14.3-18.5,3.1-2.4,12.4,16,.5-.4-9.7-18.1,6.3-4.9h0Z"/>
        <path class="st0" d="M134.7,121.2l-2.1-1.1,3.4-6.1,2.1,1.1-3.4,6.1ZM142.1,110.3l20.5,11.4-1.9,3.5-17.7-9.8-.3.5,16.1,12.8-3.9,7-20.5-11.4,1.9-3.5,17.7,9.8.3-.5-16.1-12.8,3.9-7h0Z"/>
      </g>
      <g>
        <circle class="st0" cx="8.5" cy="86.7" r="3.9"/>
        <circle class="st0" cx="157.6" cy="86.7" r="3.9"/>
      </g>
    </g>
  </g>
</svg>