<?xml version="1.0" encoding="UTF-8"?>
<svg id="_Слой_2" xmlns="http://www.w3.org/2000/svg" version="1.1" viewBox="0 0 103.2 103.8">
  <!-- Generator: Adobe Illustrator 29.7.1, SVG Export Plug-In . SVG Version: 2.1.1 Build 8)  -->
  <defs>
    <style>
      .st0 {
        fill: #d6c5e7;
      }
    </style>
  </defs>
  <g id="_Слой_1-2">
    <g>
      <path class="st0" d="M51.6,0C23.1,0,0,23.2,0,51.9s23.1,51.9,51.6,51.9,51.6-23.2,51.6-51.9S80.1,0,51.6,0ZM51.6,97.3c-25.1,0-45.5-20.3-45.5-45.5S26.5,6.4,51.6,6.4s45.4,20.3,45.4,45.5-20.3,45.5-45.4,45.4Z"/>
      <polygon class="st0" points="35.9 66 30.7 75 72.5 75 67.3 66 35.9 66"/>
      <polygon class="st0" points="12.3 75 25.8 75 42.6 45.9 55.7 45.9 49.1 34.6 58.4 18.6 51.6 6.9 12.3 75"/>
      <polygon class="st0" points="77.4 75 90.9 75 60.8 22.9 54.1 34.6 63.1 50.2 45.1 50.2 38.4 61.8 69.8 61.8 77.4 75"/>
    </g>
  </g>
</svg>